<svg width="144" height="25" viewBox="0 0 144 25" fill="none" xmlns="http://www.w3.org/2000/svg">
<path d="M13.77 17.01C13.77 18.03 13.65 18.99 13.41 19.89C13.19 20.79 12.79 21.58 12.21 22.26C11.65 22.92 10.88 23.45 9.9 23.85C8.94 24.23 7.72 24.42 6.24 24.42C4.88 24.42 3.71 24.26 2.73 23.94C1.75 23.6 0.94 23.21 0.3 22.77L1.86 19.14C2.44 19.48 3.06 19.78 3.72 20.04C4.38 20.3 5.1 20.43 5.88 20.43C7.02 20.43 7.84 20.15 8.34 19.59C8.84 19.03 9.09 18.09 9.09 16.77V3.21H13.77V17.01ZM32.7389 16.08C32.7389 17.32 32.5589 18.46 32.1989 19.5C31.8389 20.52 31.3189 21.4 30.6389 22.14C29.9589 22.86 29.1389 23.42 28.1789 23.82C27.2389 24.22 26.1789 24.42 24.9989 24.42C23.8389 24.42 22.7789 24.22 21.8189 23.82C20.8789 23.42 20.0689 22.86 19.3889 22.14C18.7089 21.4 18.1789 20.52 17.7989 19.5C17.4189 18.46 17.2289 17.32 17.2289 16.08C17.2289 14.84 17.4189 13.71 17.7989 12.69C18.1989 11.67 18.7389 10.8 19.4189 10.08C20.1189 9.36 20.9389 8.8 21.8789 8.4C22.8389 8 23.8789 7.8 24.9989 7.8C26.1389 7.8 27.1789 8 28.1189 8.4C29.0789 8.8 29.8989 9.36 30.5789 10.08C31.2589 10.8 31.7889 11.67 32.1689 12.69C32.5489 13.71 32.7389 14.84 32.7389 16.08ZM28.1789 16.08C28.1789 14.7 27.8989 13.62 27.3389 12.84C26.7989 12.04 26.0189 11.64 24.9989 11.64C23.9789 11.64 23.1889 12.04 22.6289 12.84C22.0689 13.62 21.7889 14.7 21.7889 16.08C21.7889 17.46 22.0689 18.56 22.6289 19.38C23.1889 20.18 23.9789 20.58 24.9989 20.58C26.0189 20.58 26.7989 20.18 27.3389 19.38C27.8989 18.56 28.1789 17.46 28.1789 16.08ZM46.3116 15.99C46.3116 13.11 45.2516 11.67 43.1316 11.67C42.6716 11.67 42.2116 11.73 41.7516 11.85C41.3116 11.97 40.9516 12.12 40.6716 12.3V20.43C40.8916 20.47 41.1716 20.51 41.5116 20.55C41.8516 20.57 42.2216 20.58 42.6216 20.58C43.8416 20.58 44.7616 20.16 45.3816 19.32C46.0016 18.48 46.3116 17.37 46.3116 15.99ZM50.8716 16.11C50.8716 17.37 50.6816 18.51 50.3016 19.53C49.9416 20.55 49.4116 21.42 48.7116 22.14C48.0116 22.86 47.1516 23.42 46.1316 23.82C45.1116 24.2 43.9516 24.39 42.6516 24.39C42.1116 24.39 41.5416 24.36 40.9416 24.3C40.3616 24.26 39.7816 24.2 39.2016 24.12C38.6416 24.04 38.1016 23.95 37.5816 23.85C37.0616 23.73 36.6016 23.61 36.2016 23.49V1.44L40.6716 0.719999V8.58C41.1716 8.36 41.6916 8.19 42.2316 8.07C42.7716 7.95 43.3516 7.89 43.9716 7.89C45.0916 7.89 46.0816 8.09 46.9416 8.49C47.8016 8.87 48.5216 9.42 49.1016 10.14C49.6816 10.86 50.1216 11.73 50.4216 12.75C50.7216 13.75 50.8716 14.87 50.8716 16.11Z" fill="#FFC700"/>
<path d="M54.607 24V3.21H68.527V7.14H59.287V11.49H67.507V15.42H59.287V24H54.607ZM76.0036 24H71.5336V8.22H76.0036V24ZM76.4236 3.66C76.4236 4.48 76.1536 5.13 75.6136 5.61C75.0936 6.07 74.4736 6.3 73.7536 6.3C73.0336 6.3 72.4036 6.07 71.8636 5.61C71.3436 5.13 71.0836 4.48 71.0836 3.66C71.0836 2.84 71.3436 2.2 71.8636 1.74C72.4036 1.26 73.0336 1.02 73.7536 1.02C74.4736 1.02 75.0936 1.26 75.6136 1.74C76.1536 2.2 76.4236 2.84 76.4236 3.66ZM80.2055 8.76C80.9655 8.54 81.9455 8.34 83.1455 8.16C84.3455 7.96 85.6055 7.86 86.9255 7.86C88.2655 7.86 89.3755 8.04 90.2555 8.4C91.1555 8.74 91.8655 9.23 92.3855 9.87C92.9055 10.51 93.2755 11.27 93.4955 12.15C93.7155 13.03 93.8255 14.01 93.8255 15.09V24H89.3555V15.63C89.3555 14.19 89.1655 13.17 88.7855 12.57C88.4055 11.97 87.6955 11.67 86.6555 11.67C86.3355 11.67 85.9955 11.69 85.6355 11.73C85.2755 11.75 84.9555 11.78 84.6755 11.82V24H80.2055V8.76ZM101.681 15.99C101.681 17.37 101.991 18.48 102.611 19.32C103.231 20.16 104.151 20.58 105.371 20.58C105.771 20.58 106.141 20.57 106.481 20.55C106.821 20.51 107.101 20.47 107.321 20.43V12.3C107.041 12.12 106.671 11.97 106.211 11.85C105.771 11.73 105.321 11.67 104.861 11.67C102.741 11.67 101.681 13.11 101.681 15.99ZM111.791 23.49C111.391 23.61 110.931 23.73 110.411 23.85C109.891 23.95 109.341 24.04 108.761 24.12C108.201 24.2 107.621 24.26 107.021 24.3C106.441 24.36 105.881 24.39 105.341 24.39C104.041 24.39 102.881 24.2 101.861 23.82C100.841 23.44 99.9815 22.9 99.2815 22.2C98.5815 21.48 98.0415 20.62 97.6615 19.62C97.3015 18.6 97.1215 17.46 97.1215 16.2C97.1215 14.92 97.2815 13.77 97.6015 12.75C97.9215 11.71 98.3815 10.83 98.9815 10.11C99.5815 9.39 100.311 8.84 101.171 8.46C102.051 8.08 103.051 7.89 104.171 7.89C104.791 7.89 105.341 7.95 105.821 8.07C106.321 8.19 106.821 8.36 107.321 8.58V1.44L111.791 0.719999V23.49ZM115.227 16.23C115.227 14.83 115.437 13.61 115.857 12.57C116.297 11.51 116.867 10.63 117.567 9.93C118.267 9.23 119.067 8.7 119.967 8.34C120.887 7.98 121.827 7.8 122.787 7.8C125.027 7.8 126.797 8.49 128.097 9.87C129.397 11.23 130.047 13.24 130.047 15.9C130.047 16.16 130.037 16.45 130.017 16.77C129.997 17.07 129.977 17.34 129.957 17.58H119.817C119.917 18.5 120.347 19.23 121.107 19.77C121.867 20.31 122.887 20.58 124.167 20.58C124.987 20.58 125.787 20.51 126.567 20.37C127.367 20.21 128.017 20.02 128.517 19.8L129.117 23.43C128.877 23.55 128.557 23.67 128.157 23.79C127.757 23.91 127.307 24.01 126.807 24.09C126.327 24.19 125.807 24.27 125.247 24.33C124.687 24.39 124.127 24.42 123.567 24.42C122.147 24.42 120.907 24.21 119.847 23.79C118.807 23.37 117.937 22.8 117.237 22.08C116.557 21.34 116.047 20.47 115.707 19.47C115.387 18.47 115.227 17.39 115.227 16.23ZM125.727 14.52C125.707 14.14 125.637 13.77 125.517 13.41C125.417 13.05 125.247 12.73 125.007 12.45C124.787 12.17 124.497 11.94 124.137 11.76C123.797 11.58 123.367 11.49 122.847 11.49C122.347 11.49 121.917 11.58 121.557 11.76C121.197 11.92 120.897 12.14 120.657 12.42C120.417 12.7 120.227 13.03 120.087 13.41C119.967 13.77 119.877 14.14 119.817 14.52H125.727ZM143.006 12.18C142.606 12.08 142.136 11.98 141.596 11.88C141.056 11.76 140.476 11.7 139.856 11.7C139.576 11.7 139.236 11.73 138.836 11.79C138.456 11.83 138.166 11.88 137.966 11.94V24H133.496V9.06C134.296 8.78 135.236 8.52 136.316 8.28C137.416 8.02 138.636 7.89 139.976 7.89C140.216 7.89 140.506 7.91 140.846 7.95C141.186 7.97 141.526 8.01 141.866 8.07C142.206 8.11 142.546 8.17 142.886 8.25C143.226 8.31 143.516 8.39 143.756 8.49L143.006 12.18Z" fill="white"/>
</svg>
